# xmcd
#
# Track frame offsets:
#	150
#	36323
#	53849
#	77806
#	108331
#	129404
#	145523
#	162959
#	172417
#	195240
#	222772
#	238901
#	265891
#	298527
#
# Disc length: 4345 seconds
#
# Revision: 1
# Processed by: cddbd v1.5.1PL0 Copyright (c) Steve Scherf et al.
# Submitted via: CDex 1.50Beta5
#
DISCID=ca10f70e
DTITLE=J.A.シーザー - 狼少年
DYEAR=2002
DGENRE=
TTITLE0=月狼
TTITLE1=メインテーマ(中国の不思議な役人-HOWより)
TTITLE2=隠喩の森(中国の不思議な役人-犯罪大通りより)
TTITLE3=黄泉の幻想曲(阿片戦争-ひとふり鈴は母のすずより)
TTITLE4=死亡遊戯(新・観客席-劇の外2 1/2より)
TTITLE5=影よいずこに(中国の不思議な役人-胡弓より)
TTITLE6=悪魔来たりて(青ひげ公の城-イスラエルの悪魔の歌)
TTITLE7=人食い穴(中国の不思議な役人-布引きより)
TTITLE8=エロス+虐殺(青ひげ公の城-魔術師IIより)
TTITLE9=邂逅(新・観客席-心霊術より)
TTITLE10=国男舞踊曲(中国の不思議な役人-人形昇天より)
TTITLE11=降霊術(中国の不思議な役人-鏡の国のスパイ)
TTITLE12=メインテーマ(中国の不思議な役人-HOWより)
TTITLE13=鏡狼
EXTD=
EXTT0=
EXTT1=
EXTT2=
EXTT3=
EXTT4=
EXTT5=
EXTT6=
EXTT7=
EXTT8=
EXTT9=
EXTT10=
EXTT11=
EXTT12=
EXTT13=
PLAYORDER=
